<mxfile host="65bd71144e">
    <diagram id="AcNK56kvp5SHfeJqLpso" name="ページ1">
        <mxGraphModel dx="692" dy="428" grid="1" gridSize="10" guides="1" tooltips="1" connect="1" arrows="1" fold="1" page="1" pageScale="1" pageWidth="827" pageHeight="1169" math="0" shadow="0">
            <root>
                <mxCell id="0"/>
                <mxCell id="1" parent="0"/>
                <mxCell id="2" value="items" style="swimlane;whiteSpace=wrap;html=1;startSize=20;" parent="1" vertex="1">
                    <mxGeometry x="360" y="350" width="120" height="180" as="geometry"/>
                </mxCell>
                <mxCell id="3" value="" style="endArrow=none;html=1;startArrow=none;" parent="2" source="5" edge="1">
                    <mxGeometry width="50" height="50" relative="1" as="geometry">
                        <mxPoint x="30" y="180" as="sourcePoint"/>
                        <mxPoint x="30" y="20" as="targetPoint"/>
                        <Array as="points"/>
                    </mxGeometry>
                </mxCell>
                <mxCell id="4" value="" style="endArrow=none;html=1;exitX=0.25;exitY=1;exitDx=0;exitDy=0;" parent="2" source="2" edge="1">
                    <mxGeometry width="50" height="50" relative="1" as="geometry">
                        <mxPoint x="30" y="140" as="sourcePoint"/>
                        <mxPoint x="31" y="20" as="targetPoint"/>
                    </mxGeometry>
                </mxCell>
                <mxCell id="5" value="PK" style="text;html=1;strokeColor=none;fillColor=none;align=center;verticalAlign=middle;whiteSpace=wrap;rounded=0;" parent="2" vertex="1">
                    <mxGeometry y="19" width="30" height="24" as="geometry"/>
                </mxCell>
                <mxCell id="6" value="id" style="text;html=1;strokeColor=none;fillColor=none;align=center;verticalAlign=middle;whiteSpace=wrap;rounded=0;" parent="2" vertex="1">
                    <mxGeometry x="20" y="20" width="60" height="20" as="geometry"/>
                </mxCell>
                <mxCell id="7" value="name" style="text;html=1;strokeColor=none;fillColor=none;align=center;verticalAlign=middle;whiteSpace=wrap;rounded=0;" parent="2" vertex="1">
                    <mxGeometry x="28" y="40" width="60" height="20" as="geometry"/>
                </mxCell>
                <mxCell id="8" value="brand" style="text;html=1;strokeColor=none;fillColor=none;align=center;verticalAlign=middle;whiteSpace=wrap;rounded=0;" parent="2" vertex="1">
                    <mxGeometry x="28" y="60" width="60" height="20" as="geometry"/>
                </mxCell>
                <mxCell id="9" value="price" style="text;html=1;strokeColor=none;fillColor=none;align=center;verticalAlign=middle;whiteSpace=wrap;rounded=0;" parent="2" vertex="1">
                    <mxGeometry x="26" y="80" width="60" height="20" as="geometry"/>
                </mxCell>
                <mxCell id="10" value="description" style="text;html=1;strokeColor=none;fillColor=none;align=center;verticalAlign=middle;whiteSpace=wrap;rounded=0;" parent="2" vertex="1">
                    <mxGeometry x="41" y="100" width="60" height="20" as="geometry"/>
                </mxCell>
                <mxCell id="11" value="img_url" style="text;html=1;strokeColor=none;fillColor=none;align=center;verticalAlign=middle;whiteSpace=wrap;rounded=0;" parent="2" vertex="1">
                    <mxGeometry x="22" y="120" width="80" height="20" as="geometry"/>
                </mxCell>
                <mxCell id="12" value="user_id" style="text;html=1;strokeColor=none;fillColor=none;align=center;verticalAlign=middle;whiteSpace=wrap;rounded=0;" parent="2" vertex="1">
                    <mxGeometry x="22" y="140" width="80" height="20" as="geometry"/>
                </mxCell>
                <mxCell id="13" value="condition_id" style="text;html=1;strokeColor=none;fillColor=none;align=center;verticalAlign=middle;whiteSpace=wrap;rounded=0;" parent="2" vertex="1">
                    <mxGeometry x="34" y="160" width="80" height="20" as="geometry"/>
                </mxCell>
                <mxCell id="14" value="profiles" style="swimlane;whiteSpace=wrap;html=1;startSize=20;" parent="1" vertex="1">
                    <mxGeometry x="40" y="350" width="120" height="140" as="geometry"/>
                </mxCell>
                <mxCell id="15" value="" style="endArrow=none;html=1;startArrow=none;" parent="14" source="17" edge="1">
                    <mxGeometry width="50" height="50" relative="1" as="geometry">
                        <mxPoint x="30" y="180" as="sourcePoint"/>
                        <mxPoint x="30" y="20" as="targetPoint"/>
                        <Array as="points"/>
                    </mxGeometry>
                </mxCell>
                <mxCell id="16" value="" style="endArrow=none;html=1;" parent="14" edge="1">
                    <mxGeometry width="50" height="50" relative="1" as="geometry">
                        <mxPoint x="30" y="140" as="sourcePoint"/>
                        <mxPoint x="31" y="20" as="targetPoint"/>
                    </mxGeometry>
                </mxCell>
                <mxCell id="17" value="PK" style="text;html=1;strokeColor=none;fillColor=none;align=center;verticalAlign=middle;whiteSpace=wrap;rounded=0;" parent="14" vertex="1">
                    <mxGeometry y="19" width="30" height="24" as="geometry"/>
                </mxCell>
                <mxCell id="18" value="id" style="text;html=1;strokeColor=none;fillColor=none;align=center;verticalAlign=middle;whiteSpace=wrap;rounded=0;" parent="14" vertex="1">
                    <mxGeometry x="20" y="20" width="60" height="20" as="geometry"/>
                </mxCell>
                <mxCell id="19" value="user_id" style="text;html=1;strokeColor=none;fillColor=none;align=center;verticalAlign=middle;whiteSpace=wrap;rounded=0;" parent="14" vertex="1">
                    <mxGeometry x="33" y="40" width="60" height="20" as="geometry"/>
                </mxCell>
                <mxCell id="20" value="img_url" style="text;html=1;strokeColor=none;fillColor=none;align=center;verticalAlign=middle;whiteSpace=wrap;rounded=0;" parent="14" vertex="1">
                    <mxGeometry x="34" y="60" width="60" height="20" as="geometry"/>
                </mxCell>
                <mxCell id="21" value="postcode" style="text;html=1;strokeColor=none;fillColor=none;align=center;verticalAlign=middle;whiteSpace=wrap;rounded=0;" parent="14" vertex="1">
                    <mxGeometry x="38" y="80" width="60" height="20" as="geometry"/>
                </mxCell>
                <mxCell id="22" value="address" style="text;html=1;strokeColor=none;fillColor=none;align=center;verticalAlign=middle;whiteSpace=wrap;rounded=0;" parent="14" vertex="1">
                    <mxGeometry x="35" y="100" width="60" height="20" as="geometry"/>
                </mxCell>
                <mxCell id="23" value="building" style="text;html=1;strokeColor=none;fillColor=none;align=center;verticalAlign=middle;whiteSpace=wrap;rounded=0;" parent="14" vertex="1">
                    <mxGeometry x="25" y="120" width="80" height="20" as="geometry"/>
                </mxCell>
                <mxCell id="24" value="likes" style="swimlane;whiteSpace=wrap;html=1;startSize=20;" parent="1" vertex="1">
                    <mxGeometry x="280" y="230" width="120" height="90" as="geometry"/>
                </mxCell>
                <mxCell id="25" value="" style="endArrow=none;html=1;startArrow=none;" parent="24" source="27" edge="1">
                    <mxGeometry width="50" height="50" relative="1" as="geometry">
                        <mxPoint x="30" y="180" as="sourcePoint"/>
                        <mxPoint x="30" y="20" as="targetPoint"/>
                        <Array as="points"/>
                    </mxGeometry>
                </mxCell>
                <mxCell id="26" value="" style="endArrow=none;html=1;" parent="24" edge="1">
                    <mxGeometry width="50" height="50" relative="1" as="geometry">
                        <mxPoint x="30" y="90" as="sourcePoint"/>
                        <mxPoint x="31" y="20" as="targetPoint"/>
                    </mxGeometry>
                </mxCell>
                <mxCell id="27" value="PK" style="text;html=1;strokeColor=none;fillColor=none;align=center;verticalAlign=middle;whiteSpace=wrap;rounded=0;" parent="24" vertex="1">
                    <mxGeometry y="19" width="30" height="24" as="geometry"/>
                </mxCell>
                <mxCell id="28" value="id" style="text;html=1;strokeColor=none;fillColor=none;align=center;verticalAlign=middle;whiteSpace=wrap;rounded=0;" parent="24" vertex="1">
                    <mxGeometry x="20" y="20" width="60" height="20" as="geometry"/>
                </mxCell>
                <mxCell id="29" value="user_id" style="text;html=1;strokeColor=none;fillColor=none;align=center;verticalAlign=middle;whiteSpace=wrap;rounded=0;" parent="24" vertex="1">
                    <mxGeometry x="33" y="40" width="60" height="20" as="geometry"/>
                </mxCell>
                <mxCell id="30" value="item_id" style="text;html=1;strokeColor=none;fillColor=none;align=center;verticalAlign=middle;whiteSpace=wrap;rounded=0;" parent="24" vertex="1">
                    <mxGeometry x="34" y="60" width="60" height="20" as="geometry"/>
                </mxCell>
                <mxCell id="mKXe0vfDq7-oEhxnyvC6-41" value="users" style="swimlane;whiteSpace=wrap;html=1;startSize=20;" parent="1" vertex="1">
                    <mxGeometry x="200" y="350" width="120" height="160" as="geometry"/>
                </mxCell>
                <mxCell id="mKXe0vfDq7-oEhxnyvC6-43" value="" style="endArrow=none;html=1;startArrow=none;" parent="mKXe0vfDq7-oEhxnyvC6-41" source="mKXe0vfDq7-oEhxnyvC6-44" edge="1">
                    <mxGeometry width="50" height="50" relative="1" as="geometry">
                        <mxPoint x="30" y="180" as="sourcePoint"/>
                        <mxPoint x="30" y="20" as="targetPoint"/>
                        <Array as="points"/>
                    </mxGeometry>
                </mxCell>
                <mxCell id="mKXe0vfDq7-oEhxnyvC6-45" value="" style="endArrow=none;html=1;" parent="mKXe0vfDq7-oEhxnyvC6-41" edge="1">
                    <mxGeometry width="50" height="50" relative="1" as="geometry">
                        <mxPoint x="31" y="160" as="sourcePoint"/>
                        <mxPoint x="31" y="20" as="targetPoint"/>
                    </mxGeometry>
                </mxCell>
                <mxCell id="mKXe0vfDq7-oEhxnyvC6-44" value="PK" style="text;html=1;strokeColor=none;fillColor=none;align=center;verticalAlign=middle;whiteSpace=wrap;rounded=0;" parent="mKXe0vfDq7-oEhxnyvC6-41" vertex="1">
                    <mxGeometry y="19" width="30" height="24" as="geometry"/>
                </mxCell>
                <mxCell id="mKXe0vfDq7-oEhxnyvC6-46" value="id" style="text;html=1;strokeColor=none;fillColor=none;align=center;verticalAlign=middle;whiteSpace=wrap;rounded=0;" parent="mKXe0vfDq7-oEhxnyvC6-41" vertex="1">
                    <mxGeometry x="20" y="20" width="60" height="20" as="geometry"/>
                </mxCell>
                <mxCell id="mKXe0vfDq7-oEhxnyvC6-47" value="name" style="text;html=1;strokeColor=none;fillColor=none;align=center;verticalAlign=middle;whiteSpace=wrap;rounded=0;" parent="mKXe0vfDq7-oEhxnyvC6-41" vertex="1">
                    <mxGeometry x="28" y="40" width="60" height="20" as="geometry"/>
                </mxCell>
                <mxCell id="mKXe0vfDq7-oEhxnyvC6-48" value="email" style="text;html=1;strokeColor=none;fillColor=none;align=center;verticalAlign=middle;whiteSpace=wrap;rounded=0;" parent="mKXe0vfDq7-oEhxnyvC6-41" vertex="1">
                    <mxGeometry x="27" y="60" width="60" height="20" as="geometry"/>
                </mxCell>
                <mxCell id="mKXe0vfDq7-oEhxnyvC6-49" value="password" style="text;html=1;strokeColor=none;fillColor=none;align=center;verticalAlign=middle;whiteSpace=wrap;rounded=0;" parent="mKXe0vfDq7-oEhxnyvC6-41" vertex="1">
                    <mxGeometry x="39" y="80" width="60" height="20" as="geometry"/>
                </mxCell>
                <mxCell id="mKXe0vfDq7-oEhxnyvC6-50" value="authority" style="text;html=1;strokeColor=none;fillColor=none;align=center;verticalAlign=middle;whiteSpace=wrap;rounded=0;" parent="mKXe0vfDq7-oEhxnyvC6-41" vertex="1">
                    <mxGeometry x="35" y="100" width="60" height="20" as="geometry"/>
                </mxCell>
                <mxCell id="mKXe0vfDq7-oEhxnyvC6-51" value="introduction" style="text;html=1;strokeColor=none;fillColor=none;align=center;verticalAlign=middle;whiteSpace=wrap;rounded=0;" parent="mKXe0vfDq7-oEhxnyvC6-41" vertex="1">
                    <mxGeometry x="33" y="120" width="80" height="20" as="geometry"/>
                </mxCell>
                <mxCell id="113" value="staff" style="text;html=1;strokeColor=none;fillColor=none;align=center;verticalAlign=middle;whiteSpace=wrap;rounded=0;" vertex="1" parent="mKXe0vfDq7-oEhxnyvC6-41">
                    <mxGeometry x="25" y="139" width="57" height="20" as="geometry"/>
                </mxCell>
                <mxCell id="34" value="sold_items" style="swimlane;whiteSpace=wrap;html=1;startSize=20;" parent="1" vertex="1">
                    <mxGeometry x="280" y="680" width="120" height="90" as="geometry"/>
                </mxCell>
                <mxCell id="35" value="" style="endArrow=none;html=1;startArrow=none;" parent="34" source="37" edge="1">
                    <mxGeometry width="50" height="50" relative="1" as="geometry">
                        <mxPoint x="30" y="180" as="sourcePoint"/>
                        <mxPoint x="30" y="20" as="targetPoint"/>
                        <Array as="points"/>
                    </mxGeometry>
                </mxCell>
                <mxCell id="36" value="" style="endArrow=none;html=1;" parent="34" edge="1">
                    <mxGeometry width="50" height="50" relative="1" as="geometry">
                        <mxPoint x="30" y="90" as="sourcePoint"/>
                        <mxPoint x="31" y="20" as="targetPoint"/>
                    </mxGeometry>
                </mxCell>
                <mxCell id="37" value="PK" style="text;html=1;strokeColor=none;fillColor=none;align=center;verticalAlign=middle;whiteSpace=wrap;rounded=0;" parent="34" vertex="1">
                    <mxGeometry y="19" width="30" height="24" as="geometry"/>
                </mxCell>
                <mxCell id="38" value="id" style="text;html=1;strokeColor=none;fillColor=none;align=center;verticalAlign=middle;whiteSpace=wrap;rounded=0;" parent="34" vertex="1">
                    <mxGeometry x="20" y="20" width="60" height="20" as="geometry"/>
                </mxCell>
                <mxCell id="39" value="user_id" style="text;html=1;strokeColor=none;fillColor=none;align=center;verticalAlign=middle;whiteSpace=wrap;rounded=0;" parent="34" vertex="1">
                    <mxGeometry x="33" y="40" width="60" height="20" as="geometry"/>
                </mxCell>
                <mxCell id="40" value="item_id" style="text;html=1;strokeColor=none;fillColor=none;align=center;verticalAlign=middle;whiteSpace=wrap;rounded=0;" parent="34" vertex="1">
                    <mxGeometry x="34" y="60" width="60" height="20" as="geometry"/>
                </mxCell>
                <mxCell id="41" value="conditions" style="swimlane;whiteSpace=wrap;html=1;startSize=20;" parent="1" vertex="1">
                    <mxGeometry x="600" y="470" width="120" height="70" as="geometry"/>
                </mxCell>
                <mxCell id="42" value="" style="endArrow=none;html=1;startArrow=none;" parent="41" source="44" edge="1">
                    <mxGeometry width="50" height="50" relative="1" as="geometry">
                        <mxPoint x="30" y="180" as="sourcePoint"/>
                        <mxPoint x="30" y="20" as="targetPoint"/>
                        <Array as="points"/>
                    </mxGeometry>
                </mxCell>
                <mxCell id="43" value="" style="endArrow=none;html=1;entryX=1;entryY=0;entryDx=0;entryDy=0;" parent="41" target="44" edge="1">
                    <mxGeometry width="50" height="50" relative="1" as="geometry">
                        <mxPoint x="30" y="70" as="sourcePoint"/>
                        <mxPoint x="-60" y="10" as="targetPoint"/>
                        <Array as="points"/>
                    </mxGeometry>
                </mxCell>
                <mxCell id="44" value="PK" style="text;html=1;strokeColor=none;fillColor=none;align=center;verticalAlign=middle;whiteSpace=wrap;rounded=0;" parent="41" vertex="1">
                    <mxGeometry y="19" width="30" height="24" as="geometry"/>
                </mxCell>
                <mxCell id="45" value="id" style="text;html=1;strokeColor=none;fillColor=none;align=center;verticalAlign=middle;whiteSpace=wrap;rounded=0;" parent="41" vertex="1">
                    <mxGeometry x="20" y="20" width="60" height="20" as="geometry"/>
                </mxCell>
                <mxCell id="46" value="condition" style="text;html=1;strokeColor=none;fillColor=none;align=center;verticalAlign=middle;whiteSpace=wrap;rounded=0;" parent="41" vertex="1">
                    <mxGeometry x="38" y="40" width="60" height="20" as="geometry"/>
                </mxCell>
                <mxCell id="54" value="comments" style="swimlane;whiteSpace=wrap;html=1;startSize=20;" parent="1" vertex="1">
                    <mxGeometry x="280" y="550" width="120" height="110" as="geometry"/>
                </mxCell>
                <mxCell id="55" value="" style="endArrow=none;html=1;startArrow=none;" parent="54" source="57" edge="1">
                    <mxGeometry width="50" height="50" relative="1" as="geometry">
                        <mxPoint x="30" y="180" as="sourcePoint"/>
                        <mxPoint x="30" y="20" as="targetPoint"/>
                        <Array as="points"/>
                    </mxGeometry>
                </mxCell>
                <mxCell id="56" value="" style="endArrow=none;html=1;exitX=0.25;exitY=1;exitDx=0;exitDy=0;" parent="54" source="54" edge="1">
                    <mxGeometry width="50" height="50" relative="1" as="geometry">
                        <mxPoint x="30" y="90" as="sourcePoint"/>
                        <mxPoint x="31" y="20" as="targetPoint"/>
                    </mxGeometry>
                </mxCell>
                <mxCell id="57" value="PK" style="text;html=1;strokeColor=none;fillColor=none;align=center;verticalAlign=middle;whiteSpace=wrap;rounded=0;" parent="54" vertex="1">
                    <mxGeometry y="19" width="30" height="24" as="geometry"/>
                </mxCell>
                <mxCell id="58" value="id" style="text;html=1;strokeColor=none;fillColor=none;align=center;verticalAlign=middle;whiteSpace=wrap;rounded=0;" parent="54" vertex="1">
                    <mxGeometry x="20" y="20" width="60" height="20" as="geometry"/>
                </mxCell>
                <mxCell id="59" value="user_id" style="text;html=1;strokeColor=none;fillColor=none;align=center;verticalAlign=middle;whiteSpace=wrap;rounded=0;" parent="54" vertex="1">
                    <mxGeometry x="33" y="40" width="60" height="20" as="geometry"/>
                </mxCell>
                <mxCell id="60" value="item_id" style="text;html=1;strokeColor=none;fillColor=none;align=center;verticalAlign=middle;whiteSpace=wrap;rounded=0;" parent="54" vertex="1">
                    <mxGeometry x="34" y="60" width="60" height="20" as="geometry"/>
                </mxCell>
                <mxCell id="61" value="comment" style="text;html=1;strokeColor=none;fillColor=none;align=center;verticalAlign=middle;whiteSpace=wrap;rounded=0;" parent="54" vertex="1">
                    <mxGeometry x="39" y="80" width="60" height="20" as="geometry"/>
                </mxCell>
                <mxCell id="62" value="category_item" style="swimlane;whiteSpace=wrap;html=1;startSize=20;" parent="1" vertex="1">
                    <mxGeometry x="520" y="350" width="120" height="90" as="geometry"/>
                </mxCell>
                <mxCell id="63" value="" style="endArrow=none;html=1;startArrow=none;" parent="62" source="65" edge="1">
                    <mxGeometry width="50" height="50" relative="1" as="geometry">
                        <mxPoint x="30" y="180" as="sourcePoint"/>
                        <mxPoint x="30" y="20" as="targetPoint"/>
                        <Array as="points"/>
                    </mxGeometry>
                </mxCell>
                <mxCell id="64" value="" style="endArrow=none;html=1;" parent="62" edge="1">
                    <mxGeometry width="50" height="50" relative="1" as="geometry">
                        <mxPoint x="30" y="90" as="sourcePoint"/>
                        <mxPoint x="31" y="20" as="targetPoint"/>
                    </mxGeometry>
                </mxCell>
                <mxCell id="65" value="PK" style="text;html=1;strokeColor=none;fillColor=none;align=center;verticalAlign=middle;whiteSpace=wrap;rounded=0;" parent="62" vertex="1">
                    <mxGeometry y="19" width="30" height="24" as="geometry"/>
                </mxCell>
                <mxCell id="66" value="id" style="text;html=1;strokeColor=none;fillColor=none;align=center;verticalAlign=middle;whiteSpace=wrap;rounded=0;" parent="62" vertex="1">
                    <mxGeometry x="20" y="20" width="60" height="20" as="geometry"/>
                </mxCell>
                <mxCell id="67" value="user_id" style="text;html=1;strokeColor=none;fillColor=none;align=center;verticalAlign=middle;whiteSpace=wrap;rounded=0;" parent="62" vertex="1">
                    <mxGeometry x="33" y="40" width="60" height="20" as="geometry"/>
                </mxCell>
                <mxCell id="68" value="category_id" style="text;html=1;strokeColor=none;fillColor=none;align=center;verticalAlign=middle;whiteSpace=wrap;rounded=0;" parent="62" vertex="1">
                    <mxGeometry x="44" y="60" width="60" height="20" as="geometry"/>
                </mxCell>
                <mxCell id="69" value="categories" style="swimlane;whiteSpace=wrap;html=1;startSize=20;" parent="1" vertex="1">
                    <mxGeometry x="680" y="350" width="120" height="70" as="geometry"/>
                </mxCell>
                <mxCell id="70" value="" style="endArrow=none;html=1;startArrow=none;" parent="69" source="72" edge="1">
                    <mxGeometry width="50" height="50" relative="1" as="geometry">
                        <mxPoint x="30" y="180" as="sourcePoint"/>
                        <mxPoint x="30" y="20" as="targetPoint"/>
                        <Array as="points"/>
                    </mxGeometry>
                </mxCell>
                <mxCell id="71" value="" style="endArrow=none;html=1;entryX=1;entryY=0;entryDx=0;entryDy=0;" parent="69" target="72" edge="1">
                    <mxGeometry width="50" height="50" relative="1" as="geometry">
                        <mxPoint x="30" y="70" as="sourcePoint"/>
                        <mxPoint x="-60" y="10" as="targetPoint"/>
                        <Array as="points"/>
                    </mxGeometry>
                </mxCell>
                <mxCell id="72" value="PK" style="text;html=1;strokeColor=none;fillColor=none;align=center;verticalAlign=middle;whiteSpace=wrap;rounded=0;" parent="69" vertex="1">
                    <mxGeometry y="19" width="30" height="24" as="geometry"/>
                </mxCell>
                <mxCell id="73" value="id" style="text;html=1;strokeColor=none;fillColor=none;align=center;verticalAlign=middle;whiteSpace=wrap;rounded=0;" parent="69" vertex="1">
                    <mxGeometry x="20" y="20" width="60" height="20" as="geometry"/>
                </mxCell>
                <mxCell id="74" value="name" style="text;html=1;strokeColor=none;fillColor=none;align=center;verticalAlign=middle;whiteSpace=wrap;rounded=0;" parent="69" vertex="1">
                    <mxGeometry x="30" y="40" width="60" height="20" as="geometry"/>
                </mxCell>
                <mxCell id="75" value="payments" style="swimlane;whiteSpace=wrap;html=1;startSize=20;" parent="1" vertex="1">
                    <mxGeometry x="480" y="40" width="120" height="70" as="geometry"/>
                </mxCell>
                <mxCell id="76" value="" style="endArrow=none;html=1;startArrow=none;" parent="75" source="78" edge="1">
                    <mxGeometry width="50" height="50" relative="1" as="geometry">
                        <mxPoint x="30" y="180" as="sourcePoint"/>
                        <mxPoint x="30" y="20" as="targetPoint"/>
                        <Array as="points"/>
                    </mxGeometry>
                </mxCell>
                <mxCell id="77" value="" style="endArrow=none;html=1;entryX=1;entryY=0;entryDx=0;entryDy=0;" parent="75" target="78" edge="1">
                    <mxGeometry width="50" height="50" relative="1" as="geometry">
                        <mxPoint x="30" y="70" as="sourcePoint"/>
                        <mxPoint x="-60" y="10" as="targetPoint"/>
                        <Array as="points"/>
                    </mxGeometry>
                </mxCell>
                <mxCell id="78" value="PK" style="text;html=1;strokeColor=none;fillColor=none;align=center;verticalAlign=middle;whiteSpace=wrap;rounded=0;" parent="75" vertex="1">
                    <mxGeometry y="19" width="30" height="24" as="geometry"/>
                </mxCell>
                <mxCell id="79" value="id" style="text;html=1;strokeColor=none;fillColor=none;align=center;verticalAlign=middle;whiteSpace=wrap;rounded=0;" parent="75" vertex="1">
                    <mxGeometry x="20" y="20" width="60" height="20" as="geometry"/>
                </mxCell>
                <mxCell id="80" value="payment" style="text;html=1;strokeColor=none;fillColor=none;align=center;verticalAlign=middle;whiteSpace=wrap;rounded=0;" parent="75" vertex="1">
                    <mxGeometry x="38" y="40" width="60" height="20" as="geometry"/>
                </mxCell>
                <mxCell id="81" value="purchases" style="swimlane;whiteSpace=wrap;html=1;startSize=20;" parent="1" vertex="1">
                    <mxGeometry x="280" y="40" width="120" height="165" as="geometry"/>
                </mxCell>
                <mxCell id="82" value="" style="endArrow=none;html=1;startArrow=none;" parent="81" source="84" edge="1">
                    <mxGeometry width="50" height="50" relative="1" as="geometry">
                        <mxPoint x="30" y="180" as="sourcePoint"/>
                        <mxPoint x="30" y="20" as="targetPoint"/>
                        <Array as="points"/>
                    </mxGeometry>
                </mxCell>
                <mxCell id="83" value="" style="endArrow=none;html=1;exitX=0.25;exitY=1;exitDx=0;exitDy=0;" parent="81" source="81" edge="1">
                    <mxGeometry width="50" height="50" relative="1" as="geometry">
                        <mxPoint x="30" y="140" as="sourcePoint"/>
                        <mxPoint x="31" y="20" as="targetPoint"/>
                    </mxGeometry>
                </mxCell>
                <mxCell id="84" value="PK" style="text;html=1;strokeColor=none;fillColor=none;align=center;verticalAlign=middle;whiteSpace=wrap;rounded=0;" parent="81" vertex="1">
                    <mxGeometry y="19" width="30" height="24" as="geometry"/>
                </mxCell>
                <mxCell id="85" value="id" style="text;html=1;strokeColor=none;fillColor=none;align=center;verticalAlign=middle;whiteSpace=wrap;rounded=0;" parent="81" vertex="1">
                    <mxGeometry x="20" y="20" width="60" height="20" as="geometry"/>
                </mxCell>
                <mxCell id="86" value="user_id" style="text;html=1;strokeColor=none;fillColor=none;align=center;verticalAlign=middle;whiteSpace=wrap;rounded=0;" parent="81" vertex="1">
                    <mxGeometry x="33" y="40" width="60" height="20" as="geometry"/>
                </mxCell>
                <mxCell id="87" value="item_id" style="text;html=1;strokeColor=none;fillColor=none;align=center;verticalAlign=middle;whiteSpace=wrap;rounded=0;" parent="81" vertex="1">
                    <mxGeometry x="33" y="60" width="60" height="20" as="geometry"/>
                </mxCell>
                <mxCell id="88" value="payment_id" style="text;html=1;strokeColor=none;fillColor=none;align=center;verticalAlign=middle;whiteSpace=wrap;rounded=0;" parent="81" vertex="1">
                    <mxGeometry x="44" y="80" width="60" height="20" as="geometry"/>
                </mxCell>
                <mxCell id="89" value="postcode" style="text;html=1;strokeColor=none;fillColor=none;align=center;verticalAlign=middle;whiteSpace=wrap;rounded=0;" parent="81" vertex="1">
                    <mxGeometry x="37" y="100" width="60" height="20" as="geometry"/>
                </mxCell>
                <mxCell id="90" value="address" style="text;html=1;strokeColor=none;fillColor=none;align=center;verticalAlign=middle;whiteSpace=wrap;rounded=0;" parent="81" vertex="1">
                    <mxGeometry x="25" y="120" width="80" height="20" as="geometry"/>
                </mxCell>
                <mxCell id="91" value="building" style="text;html=1;strokeColor=none;fillColor=none;align=center;verticalAlign=middle;whiteSpace=wrap;rounded=0;" parent="81" vertex="1">
                    <mxGeometry x="24" y="140" width="80" height="20" as="geometry"/>
                </mxCell>
                <mxCell id="92" value="" style="fontSize=12;html=1;endArrow=ERmandOne;startArrow=ERmandOne;exitX=1;exitY=0.25;exitDx=0;exitDy=0;" parent="1" edge="1">
                    <mxGeometry width="100" height="100" relative="1" as="geometry">
                        <mxPoint x="160" y="390" as="sourcePoint"/>
                        <mxPoint x="200" y="390" as="targetPoint"/>
                    </mxGeometry>
                </mxCell>
                <mxCell id="93" value="" style="fontSize=12;html=1;endArrow=ERzeroToMany;endFill=1;entryX=0;entryY=1;entryDx=0;entryDy=0;exitX=0.5;exitY=0;exitDx=0;exitDy=0;" parent="1" source="mKXe0vfDq7-oEhxnyvC6-41" target="27" edge="1">
                    <mxGeometry width="100" height="100" relative="1" as="geometry">
                        <mxPoint x="230" y="320" as="sourcePoint"/>
                        <mxPoint x="440" y="330" as="targetPoint"/>
                        <Array as="points">
                            <mxPoint x="260" y="270"/>
                        </Array>
                    </mxGeometry>
                </mxCell>
                <mxCell id="94" value="" style="fontSize=12;html=1;endArrow=ERzeroToMany;endFill=1;exitX=0.5;exitY=0;exitDx=0;exitDy=0;entryX=1;entryY=0.5;entryDx=0;entryDy=0;" parent="1" source="2" target="24" edge="1">
                    <mxGeometry width="100" height="100" relative="1" as="geometry">
                        <mxPoint x="430" y="350" as="sourcePoint"/>
                        <mxPoint x="410" y="270" as="targetPoint"/>
                        <Array as="points">
                            <mxPoint x="420" y="275"/>
                        </Array>
                    </mxGeometry>
                </mxCell>
                <mxCell id="95" value="" style="fontSize=12;html=1;endArrow=ERzeroToMany;startArrow=ERmandOne;entryX=0;entryY=1;entryDx=0;entryDy=0;" parent="1" target="65" edge="1">
                    <mxGeometry width="100" height="100" relative="1" as="geometry">
                        <mxPoint x="480" y="393" as="sourcePoint"/>
                        <mxPoint x="440" y="430" as="targetPoint"/>
                    </mxGeometry>
                </mxCell>
                <mxCell id="96" value="" style="fontSize=12;html=1;endArrow=ERzeroToMany;startArrow=ERmandOne;" parent="1" edge="1">
                    <mxGeometry width="100" height="100" relative="1" as="geometry">
                        <mxPoint x="680" y="390" as="sourcePoint"/>
                        <mxPoint x="640" y="390" as="targetPoint"/>
                    </mxGeometry>
                </mxCell>
                <mxCell id="97" value="" style="fontSize=12;html=1;endArrow=ERzeroToMany;startArrow=ERmandOne;exitX=0;exitY=1;exitDx=0;exitDy=0;edgeStyle=orthogonalEdgeStyle;entryX=1;entryY=0.75;entryDx=0;entryDy=0;" parent="1" source="44" target="2" edge="1">
                    <mxGeometry width="100" height="100" relative="1" as="geometry">
                        <mxPoint x="490" y="403" as="sourcePoint"/>
                        <mxPoint x="520" y="480" as="targetPoint"/>
                        <Array as="points">
                            <mxPoint x="540" y="513"/>
                            <mxPoint x="540" y="485"/>
                        </Array>
                    </mxGeometry>
                </mxCell>
                <mxCell id="98" value="" style="fontSize=12;html=1;endArrow=ERzeroToMany;endFill=1;entryX=0;entryY=0.5;entryDx=0;entryDy=0;startArrow=none;" parent="1" target="54" edge="1">
                    <mxGeometry width="100" height="100" relative="1" as="geometry">
                        <mxPoint x="260" y="510" as="sourcePoint"/>
                        <mxPoint x="260" y="513" as="targetPoint"/>
                        <Array as="points">
                            <mxPoint x="260" y="605"/>
                        </Array>
                    </mxGeometry>
                </mxCell>
                <mxCell id="99" value="" style="fontSize=12;html=1;endArrow=ERzeroToMany;endFill=1;entryX=1;entryY=0.5;entryDx=0;entryDy=0;exitX=0.363;exitY=1.05;exitDx=0;exitDy=0;exitPerimeter=0;" parent="1" source="13" target="54" edge="1">
                    <mxGeometry width="100" height="100" relative="1" as="geometry">
                        <mxPoint x="270" y="500" as="sourcePoint"/>
                        <mxPoint x="290" y="615" as="targetPoint"/>
                        <Array as="points">
                            <mxPoint x="423" y="605"/>
                        </Array>
                    </mxGeometry>
                </mxCell>
                <mxCell id="100" value="" style="fontSize=12;html=1;endArrow=ERzeroToMany;endFill=1;entryX=0;entryY=0.5;entryDx=0;entryDy=0;" parent="1" target="34" edge="1">
                    <mxGeometry width="100" height="100" relative="1" as="geometry">
                        <mxPoint x="240" y="510" as="sourcePoint"/>
                        <mxPoint x="280" y="730" as="targetPoint"/>
                        <Array as="points">
                            <mxPoint x="240" y="725"/>
                        </Array>
                    </mxGeometry>
                </mxCell>
                <mxCell id="101" value="" style="fontSize=12;html=1;endArrow=ERzeroToMany;endFill=1;entryX=1;entryY=0.5;entryDx=0;entryDy=0;exitX=0.363;exitY=1.05;exitDx=0;exitDy=0;exitPerimeter=0;" parent="1" target="34" edge="1">
                    <mxGeometry width="100" height="100" relative="1" as="geometry">
                        <mxPoint x="440.03999999999996" y="530" as="sourcePoint"/>
                        <mxPoint x="417" y="604" as="targetPoint"/>
                        <Array as="points">
                            <mxPoint x="440" y="725"/>
                        </Array>
                    </mxGeometry>
                </mxCell>
                <mxCell id="102" value="" style="fontSize=12;html=1;endArrow=ERzeroToMany;endFill=1;exitX=0.25;exitY=0;exitDx=0;exitDy=0;" parent="1" source="mKXe0vfDq7-oEhxnyvC6-41" edge="1">
                    <mxGeometry width="100" height="100" relative="1" as="geometry">
                        <mxPoint x="270" y="360" as="sourcePoint"/>
                        <mxPoint x="280" y="120" as="targetPoint"/>
                        <Array as="points">
                            <mxPoint x="230" y="120"/>
                        </Array>
                    </mxGeometry>
                </mxCell>
                <mxCell id="103" value="" style="fontSize=12;html=1;endArrow=ERzeroToMany;endFill=1;" parent="1" edge="1">
                    <mxGeometry width="100" height="100" relative="1" as="geometry">
                        <mxPoint x="440" y="350" as="sourcePoint"/>
                        <mxPoint x="400" y="120" as="targetPoint"/>
                        <Array as="points">
                            <mxPoint x="440" y="120"/>
                        </Array>
                    </mxGeometry>
                </mxCell>
                <mxCell id="104" value="" style="fontSize=12;html=1;endArrow=ERzeroToMany;startArrow=ERmandOne;exitX=1;exitY=0.25;exitDx=0;exitDy=0;entryX=1;entryY=0.25;entryDx=0;entryDy=0;" parent="1" target="81" edge="1">
                    <mxGeometry width="100" height="100" relative="1" as="geometry">
                        <mxPoint x="480" y="81" as="sourcePoint"/>
                        <mxPoint x="440" y="90" as="targetPoint"/>
                    </mxGeometry>
                </mxCell>
                <mxCell id="105" value="staffs" style="swimlane;whiteSpace=wrap;html=1;startSize=20;" vertex="1" parent="1">
                    <mxGeometry x="40" y="550" width="120" height="90" as="geometry"/>
                </mxCell>
                <mxCell id="106" value="" style="endArrow=none;html=1;startArrow=none;" edge="1" parent="105" source="108">
                    <mxGeometry width="50" height="50" relative="1" as="geometry">
                        <mxPoint x="30" y="180" as="sourcePoint"/>
                        <mxPoint x="30" y="20" as="targetPoint"/>
                        <Array as="points"/>
                    </mxGeometry>
                </mxCell>
                <mxCell id="107" value="" style="endArrow=none;html=1;" edge="1" parent="105">
                    <mxGeometry width="50" height="50" relative="1" as="geometry">
                        <mxPoint x="30" y="90" as="sourcePoint"/>
                        <mxPoint x="31" y="20" as="targetPoint"/>
                    </mxGeometry>
                </mxCell>
                <mxCell id="108" value="PK" style="text;html=1;strokeColor=none;fillColor=none;align=center;verticalAlign=middle;whiteSpace=wrap;rounded=0;" vertex="1" parent="105">
                    <mxGeometry y="19" width="30" height="24" as="geometry"/>
                </mxCell>
                <mxCell id="109" value="id" style="text;html=1;strokeColor=none;fillColor=none;align=center;verticalAlign=middle;whiteSpace=wrap;rounded=0;" vertex="1" parent="105">
                    <mxGeometry x="20" y="20" width="60" height="20" as="geometry"/>
                </mxCell>
                <mxCell id="110" value="user_id" style="text;html=1;strokeColor=none;fillColor=none;align=center;verticalAlign=middle;whiteSpace=wrap;rounded=0;" vertex="1" parent="105">
                    <mxGeometry x="33" y="40" width="60" height="20" as="geometry"/>
                </mxCell>
                <mxCell id="111" value="shopcode" style="text;html=1;strokeColor=none;fillColor=none;align=center;verticalAlign=middle;whiteSpace=wrap;rounded=0;" vertex="1" parent="105">
                    <mxGeometry x="39" y="60" width="60" height="20" as="geometry"/>
                </mxCell>
                <mxCell id="112" value="" style="fontSize=12;html=1;endArrow=ERzeroToMany;endFill=1;entryX=1;entryY=0.5;entryDx=0;entryDy=0;" edge="1" parent="1" target="105">
                    <mxGeometry width="100" height="100" relative="1" as="geometry">
                        <mxPoint x="220" y="510" as="sourcePoint"/>
                        <mxPoint x="239.9999999999999" y="604.9999999999999" as="targetPoint"/>
                        <Array as="points">
                            <mxPoint x="220" y="595"/>
                        </Array>
                    </mxGeometry>
                </mxCell>
                <mxCell id="118" value="" style="fontSize=12;html=1;endArrow=ERzeroToMany;startArrow=ERmandOne;entryX=0;entryY=1;entryDx=0;entryDy=0;" edge="1" parent="1">
                    <mxGeometry width="100" height="100" relative="1" as="geometry">
                        <mxPoint x="320" y="389.58" as="sourcePoint"/>
                        <mxPoint x="360" y="389.58" as="targetPoint"/>
                    </mxGeometry>
                </mxCell>
            </root>
        </mxGraphModel>
    </diagram>
</mxfile>